# xmcd
#
# Track frame offsets: 
#        150
#        10615
#        11975
#        25082
#        26247
#        40767
#        44080
#        63637
#        64222
#        78455
#        79947
#        92930
#        96345
#        109945
#        111632
#        125852
#        129280
#        143577
#        148307
#        159807
#        162000
#        175652
#        177415
#        188735
#        190420
#        202930
#        206047
#        218312
#        223805
#        235070
#        246820
#        248675
#        261435
#        264532
#
# Disc length: 3692 seconds
#
# Revision: 0
# Processed by: cddbd v1.5.2PL0 Copyright (c) Steve Scherf et al.
# Submitted via: ExactAudioCopy v0.95b3
#
DISCID=f60e6a22
DTITLE=Various Artist - La victoire en chansons [2 CDs]
DYEAR=1994
DGENRE=Oldies
TTITLE0=Germaine Sablon /Le chant des partisans
TTITLE1=Pétain - Discours du Général Pétain sur la capitulation
TTITLE2=Rina Ketty - J'attendrai
TTITLE3=Inconnu - Générique Radio Paris
TTITLE4=Django Reinhardt - Nuages
TTITLE5=De Gaulle - Discours du Général De Gaulle
TTITLE6=Edith Piaf - C'était une histoire d'amour
TTITLE7=Inconnu - Indicatif Radio Londres
TTITLE8=Tino Rossi - Le chaland qui passe
TTITLE9=Inconnu - Commentaires Radio Londres
TTITLE10=Maurice Chevalier - Ca sent si bon la France
TTITLE11=De Gaulle - Message du Général De Gaulle
TTITLE12=Ray Ventura et ses Collégiens - Qu'est-ce qu'on attend
TTITLE13=Inconnu - En direct du débarquement (Anglais)
TTITLE14=Léo Marjane - La chapelle au clair de lune
TTITLE15=Inconnu - Discours du Commissaire délégué du Gouvernement Pro
TTITLE15=visoire
TTITLE16=Edith Piaf - L'accordéoniste
TTITLE17=Inconnu - Arrivée des troupes du Général Leclerc à Paris
TTITLE18=Charles Trenet - Il pleut dans ma chambre
TTITLE19=Inconnu - Commentaires sur l'arrivée des troupes
TTITLE20=Jean Sablon - Vous qui passez sans me voir
TTITLE21=Inconnu - Ambiance Radio de Paris
TTITLE22=Maurice Chevalier - Fleur de Paris
TTITLE23=Inconnu - Reportage - Les chars défilent aux Champs Elysées
TTITLE24=Lucienne Delyle - Mon amant de St Jean
TTITLE25=Inconnu - Commentaires - Libération de Paris, Place de l'Etoi
TTITLE25=le
TTITLE26=Fréhel - La java bleue
TTITLE27=De Gaulle - Discours du Général De Gaulle à l'Etoile
TTITLE28=Charles Trenet - Y'a d'la joie
TTITLE29=Fernandel - Je suis une petite nature
TTITLE30=Inconnu - Ambiance de Paris
TTITLE31=Damia - La rue de notre amour
TTITLE32=De Gaulle - Discours du Général De Gaulle, la Victoire
TTITLE33=Django Reinhardt - Echoes of France (La Marseillaise)
EXTD=
EXTT0=
EXTT1=
EXTT2=
EXTT3=
EXTT4=
EXTT5=
EXTT6=
EXTT7=
EXTT8=
EXTT9=
EXTT10=
EXTT11=
EXTT12=
EXTT13=
EXTT14=
EXTT15=
EXTT16=
EXTT17=
EXTT18=
EXTT19=
EXTT20=
EXTT21=
EXTT22=
EXTT23=
EXTT24=
EXTT25=
EXTT26=
EXTT27=
EXTT28=
EXTT29=
EXTT30=
EXTT31=
EXTT32=
EXTT33=
PLAYORDER=
